<?xml version="1.0" encoding="UTF-8"?>
<svg xmlns="http://www.w3.org/2000/svg" xmlns:xlink="http://www.w3.org/1999/xlink" width="269" height="253" viewBox="0 0 269 253">
  <defs>
    <style>
      .a {
        fill: none;
      }

      .b {
        clip-path: url(#a);
      }

      .c {
        fill: url(#b);
      }

      .d {
        fill: url(#c);
      }

      .e {
        fill: url(#d);
      }

      .f {
        fill: url(#e);
      }

      .g {
        fill: #454646;
      }
    </style>
    <clipPath id="a">
      <rect class="a" x="8" width="253" height="253"></rect>
    </clipPath>
    <linearGradient id="b" data-name="Безымянный градиент" x1="81.9" y1="131.54" x2="101.06" y2="165.52" gradientTransform="matrix(1, 0, 0, -1, 0, 253.89)" gradientUnits="userSpaceOnUse">
      <stop offset="0" stop-color="#888"></stop>
      <stop offset="1" stop-color="#ebebeb"></stop>
    </linearGradient>
    <linearGradient id="c" data-name="Безымянный градиент 2" x1="138.22" y1="178.43" x2="125.36" y2="151.19" gradientTransform="matrix(1, 0, 0, -1, 0, 253.89)" gradientUnits="userSpaceOnUse">
      <stop offset="0" stop-color="#d6f228"></stop>
      <stop offset="1" stop-color="#68a407"></stop>
    </linearGradient>
    <linearGradient id="d" data-name="Безымянный градиент 3" x1="160.6" y1="150.55" x2="173.59" y2="165.09" gradientTransform="matrix(1, 0, 0, -1, 0, 253.89)" gradientUnits="userSpaceOnUse">
      <stop offset="0" stop-color="#fec431"></stop>
      <stop offset="1" stop-color="#f2f53b"></stop>
    </linearGradient>
    <linearGradient id="e" data-name="Безымянный градиент 4" x1="185.47" y1="132.47" x2="196.2" y2="145.51" gradientTransform="matrix(1, 0, 0, -1, 0, 253.89)" gradientUnits="userSpaceOnUse">
      <stop offset="0" stop-color="#f52740"></stop>
      <stop offset="1" stop-color="#ff8eb0"></stop>
    </linearGradient>
  </defs>
  <title>logo_noshadow</title>
  <g class="b">
    <g>
      <path class="c" d="M108,100a16.6,16.6,0,0,0-1.7-3.9,16.2,16.2,0,0,0-5.9-5.8,17.1,17.1,0,0,0-3.9-1.6,16.9,16.9,0,0,0-8.8,0,17.2,17.2,0,0,0-3.9,1.6,16.1,16.1,0,0,0-7.6,18.3,15.6,15.6,0,0,0,1.7,3.8,16.5,16.5,0,0,0,5.9,5.8,16.6,16.6,0,0,0,20-2.5,16,16,0,0,0,2.6-3.2,16.2,16.2,0,0,0,1.7-3.8,15.8,15.8,0,0,0,0-8.6"></path>
      <path class="d" d="M144.4,85.9a13.2,13.2,0,0,0-1.3-3.1,13,13,0,0,0-4.7-4.6,13.7,13.7,0,0,0-3.2-1.3,13.5,13.5,0,0,0-7,0,13.7,13.7,0,0,0-3.2,1.3,12.9,12.9,0,0,0-2.7,2,13.1,13.1,0,0,0-2.1,2.6,12.7,12.7,0,0,0-1.3,10,12.5,12.5,0,0,0,1.3,3.1,13.2,13.2,0,0,0,4.7,4.6,13.4,13.4,0,0,0,16-2,12.6,12.6,0,0,0,3.4-12.5"></path>
      <path class="e" d="M176.6,93.5a10,10,0,0,0-1-2.3,9.7,9.7,0,0,0-3.6-3.5,10.3,10.3,0,0,0-2.4-1,10.2,10.2,0,0,0-5.3,0,10.3,10.3,0,0,0-2.4,1,9.6,9.6,0,0,0-2,1.5,9.8,9.8,0,0,0-1.5,2,9.6,9.6,0,0,0-1,7.5,9.3,9.3,0,0,0,1,2.3,9.9,9.9,0,0,0,3.6,3.5,10.1,10.1,0,0,0,12-1.5,9.6,9.6,0,0,0,1.5-2,9.8,9.8,0,0,0,1-2.3,9.5,9.5,0,0,0,0-5.2"></path>
      <path class="f" d="M197.3,113.1a6.6,6.6,0,0,0-.7-1.5,6.3,6.3,0,0,0-1-1.3l-1.3-1-1.6-.6a6.8,6.8,0,0,0-3.5,0l-1.6.6-1.3,1a6.6,6.6,0,0,0-1,1.3,6.4,6.4,0,0,0-.7,5,6.2,6.2,0,0,0,.7,1.5,6.6,6.6,0,0,0,2.4,2.3,6.8,6.8,0,0,0,6.6,0l1.3-1a6.3,6.3,0,0,0,1-1.3,6.5,6.5,0,0,0,.7-1.5,6.3,6.3,0,0,0,0-3.4"></path>
      <path class="g" d="M8,129.7H42v11H20.6v9.8H36.7V161H20.6V177H8Z"></path>
      <path class="g" d="M97.9,146.7a25.7,25.7,0,0,0-2.6-6,25.1,25.1,0,0,0-9.2-9,26.5,26.5,0,0,0-6.1-2.5,26.2,26.2,0,0,0-13.6,0,26.5,26.5,0,0,0-6.1,2.5,24.9,24.9,0,0,0-5.2,3.9,25.4,25.4,0,0,0-4,5.1,24.6,24.6,0,0,0-2.6,19.3,24.2,24.2,0,0,0,2.6,6,25.7,25.7,0,0,0,9.2,8.9,26,26,0,0,0,31-3.9,24.6,24.6,0,0,0,4-5,25,25,0,0,0,2.6-6A24.6,24.6,0,0,0,97.9,146.7Z"></path>
      <path class="g" d="M134,175.8l.6,1.2h14.2l-1.1-2.1-.6-1.1-8.4-15.4A16.6,16.6,0,0,0,142,156a15.3,15.3,0,0,0,4.2-6.7,14,14,0,0,0,.6-4.1,14.6,14.6,0,0,0-1.3-6,15.5,15.5,0,0,0-3.4-4.9,16.4,16.4,0,0,0-5.1-3.3,16.1,16.1,0,0,0-6.3-1.2H108.2v47.3h12.6V161.3h5.3Zm-13.2-36.4h8a5.5,5.5,0,0,1,2,.7,5.9,5.9,0,0,1,1.6,1.3,6.2,6.2,0,0,1,1,1.7,5.5,5.5,0,0,1,.4,1.9,6.2,6.2,0,0,1-.3,2,5.7,5.7,0,0,1-.9,1.7,5.8,5.8,0,0,1-3.5,2h-8Z"></path>
      <path class="g" d="M260.9,175.8a.2.2,0,0,1,0-.1v-.2q-1.3-13.1-2.7-26-1.1-9.9-2.1-19.9H242.2l-.4,1.2-1.6,5.1-2.2,7-5.2,16.7L224,130.9l-.4-1.2H210.1L205,175.6l-.2,1.4H217l.2-1.4,2.8-24.6,7.3,24.7.4,1.2h10.4l.4-1.2,7.4-24.8,2.8,24.6V177H261v-1.2"></path>
      <path class="g" d="M176.8,177.9a29.1,29.1,0,0,1-7.7-1,17.8,17.8,0,0,1-6.6-3.4,16.7,16.7,0,0,1-4.6-6.2,22.7,22.7,0,0,1-1.7-9.2V129.7h8.5v28.5a13.6,13.6,0,0,0,1,5.5,9.5,9.5,0,0,0,2.6,3.5,10.2,10.2,0,0,0,3.8,2,18.3,18.3,0,0,0,9.5,0,10.2,10.2,0,0,0,3.8-2,9.5,9.5,0,0,0,2.6-3.5,13.7,13.7,0,0,0,1-5.5V129.7h8.5v28.3a22.7,22.7,0,0,1-1.7,9.2,16.7,16.7,0,0,1-4.6,6.2,17.8,17.8,0,0,1-6.6,3.4,29.1,29.1,0,0,1-7.7,1Z"></path>
    </g>
  </g>
</svg>
