<svg width="62" height="45" viewBox="0 0 62 45" fill="none" xmlns="http://www.w3.org/2000/svg">
<path d="M0 27.9971C0.0821384 27.9698 0.164278 27.9595 0.253261 27.9595C0.691332 27.9595 1.13283 27.9424 1.5709 27.9663C1.93025 27.9869 2.28961 28.0142 2.64554 27.9903C3.62436 27.9287 4.6066 27.9492 5.58541 27.9698C6.49236 27.9869 7.38903 28.1169 8.2378 28.4626C9.17897 28.8459 9.90795 29.4722 10.4213 30.3483C10.8183 31.0226 11.0134 31.755 11.0716 32.5353C11.1434 33.5312 10.9757 34.4758 10.5548 35.3725C9.99351 36.5703 9.06945 37.3849 7.83737 37.8537C7.09813 38.1344 6.32808 38.2576 5.5375 38.3123C4.76403 38.3637 4.00425 38.2815 3.24104 38.2234C2.59078 38.1754 1.94394 38.1549 1.2971 38.172C1.03015 38.1789 0.763203 38.1994 0.496253 38.1994C0.444916 38.1994 0.39358 38.1994 0.342243 38.1891C0.26695 38.172 0.201924 38.131 0.212191 38.0386C0.219036 37.9496 0.287484 37.929 0.359356 37.9256C0.513365 37.9188 0.663953 37.9153 0.817962 37.888C1.02673 37.8503 1.14651 37.7408 1.20812 37.5355C1.2971 37.248 1.31764 36.9536 1.33133 36.6593C1.38609 35.482 1.36897 34.3013 1.36897 33.1205C1.36897 32.0596 1.36555 30.9986 1.36897 29.9377C1.36897 29.6194 1.33817 29.3011 1.32448 28.9828C1.30737 28.4831 1.04042 28.2538 0.533899 28.2401C0.355932 28.2333 0.167699 28.2846 0 28.1683C0 28.1101 0 28.0553 0 27.9971ZM3.08361 32.4155C3.09046 33.6407 3.06308 34.9926 3.12126 36.341C3.1281 36.4985 3.16575 36.6559 3.17602 36.8133C3.19997 37.135 3.40874 37.3062 3.67912 37.4225C3.7989 37.4738 3.92553 37.5115 4.05216 37.5423C4.6066 37.6758 5.16787 37.6621 5.73258 37.6142C6.33492 37.5628 6.91331 37.4328 7.44721 37.135C8.08036 36.7791 8.56977 36.2965 8.85726 35.612C9.11052 35.0063 9.19608 34.3731 9.2303 33.7297C9.27137 32.9973 9.18581 32.2786 8.94282 31.577C8.5287 30.386 7.72101 29.5612 6.57792 29.0752C5.61621 28.6679 4.60317 28.5516 3.56618 28.6542C3.15206 28.6953 3.08361 28.774 3.08361 29.195C3.08361 30.2286 3.08361 31.2587 3.08361 32.4155Z" fill="black"/>
<path d="M30.3912 0.0034216C30.6684 0.0581805 30.9525 0.0787143 31.2263 0.160853C32.0751 0.42438 32.739 0.9309 33.1737 1.70095C33.7623 2.74137 33.7931 3.82286 33.2387 4.88381C32.7185 5.87632 31.88 6.45813 30.778 6.64294C29.7752 6.81064 28.8511 6.59503 28.0468 5.9653C27.3418 5.41429 26.9106 4.68873 26.7908 3.78863C26.671 2.87826 26.8866 2.05346 27.4479 1.33475C28.0571 0.561279 28.858 0.116362 29.8505 0.027379C29.895 0.0239566 29.9395 0.00684487 29.9805 0C30.1174 0.00342243 30.2543 0.0034216 30.3912 0.0034216Z" fill="black"/>
<path d="M61.3301 44.6679C61.2993 44.6782 61.2651 44.6987 61.2343 44.6987C60.7552 44.7021 60.276 44.7021 59.7969 44.7021C59.7455 44.7021 59.6908 44.6884 59.6702 44.6303C59.6531 44.5789 59.7045 44.5687 59.7353 44.5447C59.7969 44.4968 59.7832 44.4352 59.7592 44.3736C59.6121 43.9868 59.4615 43.5967 59.3177 43.2065C59.2869 43.121 59.2322 43.097 59.15 43.097C58.7667 43.097 58.3868 43.097 58.0035 43.097C57.9111 43.097 57.8529 43.1312 57.8187 43.2202C57.7023 43.5419 57.5757 43.8602 57.4662 44.1819C57.3772 44.4455 57.4388 44.531 57.7126 44.5618C57.7605 44.5687 57.8256 44.5584 57.8256 44.6337C57.8256 44.7056 57.7605 44.7021 57.7092 44.7056C57.2574 44.7056 56.8091 44.7056 56.3573 44.7056C56.3094 44.7056 56.2444 44.709 56.2444 44.6337C56.2444 44.5618 56.3094 44.5652 56.3573 44.5618C56.6311 44.5515 56.8194 44.4181 56.9186 44.1648C57.2027 43.4701 57.4833 42.7719 57.764 42.0737C58.0206 41.4337 58.2739 40.7937 58.534 40.1537C58.5785 40.0476 58.599 39.8902 58.7393 39.8868C58.8831 39.8834 58.8899 40.0408 58.931 40.14C59.3656 41.2181 59.7969 42.2962 60.2349 43.3708C60.3445 43.6412 60.4506 43.9081 60.5875 44.1682C60.7107 44.4044 60.8921 44.5447 61.1658 44.555C61.224 44.5584 61.2788 44.5618 61.3301 44.5926C61.3301 44.6234 61.3301 44.644 61.3301 44.6679ZM58.599 41.2592C58.5853 41.2592 58.5682 41.2592 58.5545 41.2592C58.3868 41.7109 58.2191 42.1627 58.0549 42.6145C58.0172 42.7171 58.0617 42.7479 58.1575 42.7445C58.4347 42.7411 58.7154 42.7411 58.9926 42.7445C59.1124 42.7479 59.1261 42.6932 59.0919 42.5973C59.0234 42.4091 58.9584 42.2209 58.8899 42.0361C58.7975 41.7794 58.6983 41.5193 58.599 41.2592Z" fill="black"/>
<path d="M16.5987 44.7354C16.5303 44.6943 16.455 44.7046 16.3831 44.7046C15.8116 44.7046 15.2434 44.7046 14.6719 44.7046C14.6274 44.7046 14.5795 44.7046 14.535 44.7012C14.4837 44.6978 14.4221 44.7012 14.4221 44.6293C14.4221 44.5677 14.4768 44.5677 14.5213 44.5609C14.5453 44.5574 14.5658 44.5574 14.5898 44.554C14.7951 44.5198 14.8567 44.4479 14.8841 44.2426C14.9491 43.784 14.9115 43.3219 14.9149 42.8599C14.9217 42.1309 14.9183 41.3985 14.9183 40.6696C14.9183 40.2965 14.8636 40.2281 14.4974 40.1562C14.4426 40.1459 14.3468 40.1733 14.3605 40.0775C14.3707 39.9953 14.4563 40.0124 14.5145 40.009C14.7472 40.0022 14.9799 40.0261 15.2126 40.0364C15.5001 40.0467 15.791 40.0193 16.0819 40.009C16.1264 40.009 16.1743 40.009 16.2188 40.0124C16.2668 40.0159 16.3112 40.0364 16.3078 40.0946C16.3044 40.1459 16.2531 40.1425 16.2154 40.1493C15.7465 40.2383 15.7465 40.2383 15.7465 40.7209C15.7465 41.7134 15.7465 42.7059 15.7465 43.6984C15.7465 43.7737 15.7465 43.849 15.7602 43.9209C15.8184 44.2357 15.9074 44.3008 16.2291 44.3213C16.4516 44.335 16.6672 44.3521 16.8896 44.3247C17.1908 44.2836 17.3243 44.1912 17.4201 43.9003C17.4338 43.8558 17.4441 43.8113 17.4612 43.7703C17.4749 43.7361 17.5022 43.7121 17.5433 43.7224C17.5741 43.7292 17.5878 43.76 17.5878 43.7874C17.6083 44.0646 17.5673 44.3316 17.4851 44.5951C17.4543 44.6909 17.3517 44.6909 17.2798 44.732C17.0539 44.7354 16.828 44.7354 16.5987 44.7354Z" fill="black"/>
<path d="M23.2007 6.26597C24.532 6.12223 25.8086 6.30019 27.0098 6.88885C27.5746 7.16607 28.0879 7.522 28.5602 7.93954C29.1112 8.42553 29.6349 8.94231 30.0661 9.54124C30.1482 9.65418 30.1996 9.60284 30.2577 9.52413C30.6102 9.05867 30.9936 8.62745 31.4214 8.23045C32.496 7.2311 33.7144 6.51238 35.1929 6.30704C35.874 6.21121 36.5619 6.19752 37.2532 6.27624C37.2258 6.331 37.1813 6.32758 37.1437 6.32758C36.3702 6.36864 35.8329 6.79645 35.4085 7.40222C34.8849 8.14488 34.635 8.99707 34.4434 9.86979C34.3544 10.2702 34.2962 10.6775 34.2278 11.0813C34.2209 11.1292 34.2209 11.1772 34.2175 11.2285C34.2928 11.2148 34.2859 11.1395 34.3475 11.1087C34.3783 11.2525 34.3339 11.3894 34.3236 11.5228C34.2825 11.9575 34.2517 12.3955 34.2278 12.8302C34.1833 13.6961 34.2278 14.5619 34.1901 15.4278C34.1217 16.9645 33.9334 18.4875 33.4543 19.9625C33.0915 21.0817 32.5918 22.1324 31.8355 23.0462C31.4077 23.5595 30.9217 24.0113 30.3125 24.3159C30.1996 24.3741 30.1037 24.3741 29.9908 24.3159C29.4432 24.0387 29.0017 23.6246 28.5944 23.1762C28.1324 22.6663 27.7731 22.0845 27.4685 21.4718C27.1023 20.736 26.8353 19.9591 26.6368 19.1617C26.4212 18.2992 26.2877 17.4231 26.209 16.5367C26.12 15.5476 26.1029 14.5585 26.1098 13.5694C26.1132 12.8336 26.0584 12.1046 25.9865 11.3722C25.9865 11.362 25.9968 11.3551 26.0139 11.3175C26.0858 11.5434 26.1508 11.7487 26.2158 11.9541C26.2535 11.7487 26.2124 11.5536 26.1816 11.362C26.0516 10.4824 25.9455 9.59942 25.7093 8.73697C25.5416 8.12777 25.3226 7.54254 24.9085 7.04971C24.5389 6.60821 24.07 6.35838 23.495 6.30019C23.3992 6.28993 23.2999 6.27624 23.2007 6.26597Z" fill="black"/>
<path d="M21.1779 6.87504C21.1026 6.95033 21.0273 7.02562 20.9589 7.10434C20.5584 7.5561 20.4215 8.10027 20.4044 8.6855C20.377 9.54795 20.5858 10.3693 20.8596 11.1805C21.1368 12.0053 21.527 12.7787 21.9 13.5625C21.9137 13.5933 21.924 13.6275 21.9787 13.6309C22.0164 13.4974 21.9034 13.3913 21.9069 13.2476C21.9719 13.275 21.9959 13.3297 22.0232 13.3777C22.4237 14.1135 22.8378 14.839 23.2245 15.5817C23.5325 16.1738 23.7995 16.7864 24.0288 17.4093C24.3026 18.1417 24.5216 18.8912 24.6551 19.6612C24.7304 20.0925 24.768 20.5271 24.7886 20.9652C24.8194 21.6086 24.7578 22.2349 24.6072 22.8578C24.4977 23.3164 24.3231 23.7476 24.0664 24.1412C24.0082 24.2336 23.9364 24.2678 23.8269 24.2678C23.0876 24.285 22.3963 24.083 21.7323 23.7853C20.9041 23.4122 20.1717 22.8989 19.4975 22.2965C18.6932 21.5778 18.0121 20.7598 17.3858 19.8905C16.7253 18.9733 16.2051 17.9706 15.6164 17.0089C15.0449 16.0745 14.4357 15.1676 13.6725 14.377C13.628 14.3325 13.5322 14.288 13.652 14.2093C13.6965 14.1785 13.6451 14.1374 13.6177 14.1135C13.0941 13.6138 12.5876 13.097 11.9236 12.7685C11.5198 12.57 11.1057 12.4947 10.6642 12.6042C10.6368 12.611 10.6094 12.6247 10.5752 12.5802C10.7977 12.4228 11.0475 12.3099 11.2939 12.2003C11.8791 11.9368 12.4986 11.776 13.1352 11.7075C13.7307 11.6425 14.3262 11.6836 14.9183 11.7828C15.6986 11.9129 16.4447 12.149 17.1702 12.4639C17.2729 12.5084 17.3037 12.4981 17.3208 12.3817C17.4269 11.6425 17.6117 10.9203 17.8924 10.2256C18.2312 9.38368 18.7137 8.63759 19.3777 8.01813C19.8842 7.54583 20.4558 7.16252 21.0889 6.87161C21.1129 6.86134 21.1402 6.8545 21.1676 6.84766C21.1676 6.86135 21.171 6.86819 21.1779 6.87504Z" fill="black"/>
<path d="M39.0363 6.71094C39.4333 6.87179 39.7721 7.07714 40.0973 7.30302C40.7886 7.78216 41.3704 8.3674 41.8153 9.08611C42.2671 9.81509 42.558 10.6091 42.7496 11.4407C42.8078 11.7008 42.8694 11.9609 42.8934 12.2279C42.9036 12.3443 42.9447 12.399 43.085 12.3408C43.9372 11.9746 44.8202 11.7145 45.7408 11.605C46.8771 11.4715 47.962 11.6564 49.0058 12.1252C49.2488 12.2347 49.4781 12.3682 49.7177 12.4914C49.6664 12.5462 49.6287 12.512 49.5979 12.5017C49.1119 12.3443 48.6499 12.4332 48.2084 12.6591C47.8662 12.8337 47.5616 13.0664 47.2775 13.3231C46.8326 13.7303 46.4322 14.189 46.0146 14.6202C46.001 14.6339 45.9975 14.6578 45.9873 14.6784C46.0523 14.7297 46.0934 14.6373 46.1755 14.6749C46.066 14.8118 45.9633 14.9419 45.8606 15.0719C45.2651 15.8317 44.7381 16.636 44.2658 17.4745C43.7353 18.4191 43.174 19.3431 42.5238 20.209C42.0035 20.9038 41.4286 21.5506 40.7852 22.1324C39.9056 22.9333 38.9268 23.5801 37.7803 23.9429C37.3319 24.0832 36.8733 24.1619 36.4044 24.1653C36.3052 24.1653 36.2333 24.1345 36.1751 24.0524C35.8603 23.6041 35.6926 23.0975 35.5728 22.5739C35.4359 21.9716 35.3846 21.3555 35.4256 20.7429C35.477 19.9284 35.6207 19.1309 35.8466 18.3438C36.1204 17.3992 36.5003 16.4991 36.9247 15.6127C36.9486 15.5613 36.9486 15.4553 37.0718 15.5032C37.1129 15.5203 37.1437 15.4416 37.1711 15.3971C37.7666 14.3327 38.4066 13.2923 38.9302 12.1903C39.382 11.2354 39.7858 10.26 39.9261 9.19904C39.998 8.6583 39.9877 8.11756 39.7619 7.60419C39.6284 7.2996 39.4299 7.04976 39.1595 6.85126C39.115 6.8273 39.0671 6.80334 39.0363 6.71094Z" fill="black"/>
<path d="M50.611 13.1914C50.7513 13.3591 50.8985 13.52 51.0286 13.6945C51.6822 14.5706 51.9218 15.5666 51.8465 16.6412C51.8191 17.0211 51.7644 17.401 51.6617 17.7672C51.6309 17.8767 51.6343 17.952 51.7781 17.9281C52.2161 17.8562 52.6542 17.9281 53.0854 17.976C53.7426 18.0478 54.3689 18.2224 54.9541 18.5441C55.5872 18.8932 56.1075 19.3689 56.5284 19.9576C56.5558 19.9952 56.5832 20.0294 56.5866 20.1081C56.4839 20.026 56.4018 19.9439 56.306 19.8857C55.8337 19.5914 55.3203 19.605 54.8035 19.7146C53.9992 19.8788 53.2839 20.2519 52.5858 20.6694C51.7575 21.1657 51.0183 21.7851 50.2346 22.343C49.0709 23.1712 47.832 23.8523 46.4288 24.1843C45.6553 24.3656 44.8785 24.4273 44.0947 24.2459C43.5026 24.109 43.5745 24.1158 43.5369 23.5477C43.4958 22.9385 43.6669 22.3533 43.9099 21.792C44.2556 20.998 44.7518 20.3101 45.3302 19.6735C45.5766 19.4031 45.8059 19.1156 46.1071 18.9103C46.3159 18.77 46.5383 18.6502 46.7403 18.4962C47.6985 17.7604 48.6705 17.0416 49.5056 16.1587C49.8992 15.7445 50.2654 15.3065 50.5152 14.7863C50.7479 14.3003 50.8643 13.8074 50.5871 13.2941C50.5802 13.2667 50.57 13.2393 50.611 13.1914Z" fill="black"/>
<path d="M3.75781 20.094C3.82968 19.9057 3.95974 19.762 4.08294 19.6217C4.87695 18.7045 5.87972 18.1706 7.081 17.9994C7.46431 17.9447 7.85104 17.9413 8.23436 17.9002C8.33703 17.8899 8.43628 17.907 8.53895 17.9241C8.69296 17.9515 8.72376 17.9173 8.68612 17.7633C8.55264 17.2465 8.47735 16.7229 8.48762 16.1924C8.50473 15.0698 8.89831 14.091 9.67178 13.2731C9.69916 13.2457 9.72996 13.2217 9.77103 13.1875C9.77787 13.2149 9.78814 13.232 9.7813 13.2423C9.49381 13.7009 9.54857 14.1697 9.74707 14.6352C9.94215 15.0972 10.2399 15.4908 10.5719 15.8673C11.472 16.8872 12.5466 17.7085 13.6418 18.4991C14.0901 18.8242 14.5419 19.1391 14.9184 19.5498C15.6884 20.3917 16.3387 21.3021 16.6604 22.411C16.8041 22.9004 16.8589 23.4035 16.7733 23.9134C16.7528 24.04 16.6912 24.1085 16.568 24.153C15.9827 24.3515 15.3872 24.3686 14.7781 24.3138C13.7103 24.218 12.728 23.8518 11.7834 23.3658C10.8696 22.8969 10.0346 22.3014 9.22344 21.6717C8.65532 21.2302 8.06323 20.8298 7.43693 20.4739C6.88249 20.159 6.31095 19.8955 5.69491 19.7415C5.22946 19.6251 4.76401 19.584 4.29856 19.7517C4.09321 19.827 3.91867 19.9468 3.75781 20.094Z" fill="black"/>
<path d="M11.7287 33.2544C11.7218 31.7417 12.1394 30.5472 13.0052 29.5274C13.6281 28.795 14.4255 28.309 15.3496 28.0318C16.0889 27.8093 16.8452 27.7272 17.6118 27.7614C18.8576 27.8161 20.0349 28.1036 21.0445 28.8839C21.6948 29.387 22.1534 30.0373 22.4477 30.8039C22.7763 31.6595 22.8516 32.5494 22.766 33.4563C22.6839 34.3633 22.4169 35.2086 21.9241 35.9752C21.1506 37.1731 20.0486 37.9055 18.6694 38.234C18.156 38.3572 17.6358 38.412 17.1122 38.4017C16.1949 38.3846 15.2983 38.2272 14.47 37.8062C13.3201 37.2176 12.5295 36.2969 12.0812 35.0888C11.8553 34.4693 11.7116 33.8533 11.7287 33.2544ZM13.6247 32.498C13.6247 33.1688 13.676 33.6925 13.8027 34.2092C14.0422 35.2086 14.4735 36.1053 15.2777 36.7863C16.0991 37.4811 17.0471 37.7686 18.1149 37.6522C19.1246 37.5427 19.8433 36.9951 20.3121 36.1121C20.7297 35.3181 20.8392 34.4488 20.8768 33.5692C20.8939 33.1894 20.8597 32.8095 20.8118 32.4296C20.6989 31.5603 20.4353 30.7457 19.9186 30.0236C19.4976 29.4349 18.9603 28.9866 18.2895 28.7197C17.7145 28.4904 17.119 28.4082 16.4995 28.4835C15.4489 28.6101 14.6617 29.1167 14.1689 30.0544C13.7376 30.8587 13.6384 31.7382 13.6247 32.498Z" fill="black"/>
<path d="M53.0512 33.1103C53.0512 33.1924 53.0512 33.2609 53.0512 33.3293C53.0512 34.3903 53.0512 35.4512 53.0512 36.5122C53.0512 36.8031 53.0614 37.094 53.123 37.3781C53.2018 37.7477 53.3626 37.8675 53.7425 37.8949C53.9068 37.9086 54.0711 37.9291 54.2353 37.9291C54.3209 37.9291 54.403 37.9667 54.403 38.066C54.403 38.1618 54.3243 38.2029 54.2388 38.2029C53.7938 38.1995 53.3523 38.2132 52.9074 38.1858C52.4249 38.155 51.9389 38.1516 51.4563 38.1926C51.097 38.2234 50.7376 38.2063 50.3783 38.1995C50.2893 38.196 50.2037 38.155 50.214 38.042C50.2242 37.9359 50.3132 37.9291 50.3919 37.9257C50.5288 37.9222 50.6623 37.912 50.7992 37.8949C51.0285 37.8641 51.1483 37.7306 51.2133 37.5218C51.3057 37.2138 51.3228 36.8921 51.3297 36.5772C51.3879 34.4964 51.3776 32.4156 51.3605 30.3347C51.3571 29.859 51.3537 29.3799 51.3126 28.9041C51.2749 28.4421 50.9909 28.2915 50.5425 28.2505C50.4296 28.2402 50.3132 28.2505 50.2003 28.2436C50.1045 28.2368 50.0052 28.2162 50.0086 28.0964C50.0086 27.9664 50.1182 27.9664 50.2071 27.9664C50.8677 27.963 51.5282 27.9835 52.1887 27.9938C52.7329 28.0006 53.2805 27.9561 53.8281 27.9664C53.8794 27.9664 53.9307 27.9664 53.9821 27.9698C54.0642 27.9732 54.1327 28.004 54.1327 28.0964C54.1327 28.182 54.0676 28.2299 53.9889 28.2402C53.8589 28.2573 53.7288 28.2505 53.5988 28.2778C53.2942 28.3429 53.1641 28.4558 53.1059 28.7638C53.0751 28.9178 53.0546 29.0787 53.0546 29.2395C53.0512 30.2663 53.0512 31.293 53.0512 32.3197C53.0512 32.3574 53.058 32.3984 53.0614 32.4498C53.1812 32.419 53.212 32.306 53.2805 32.2376C53.5509 31.9604 53.8246 31.6866 54.0882 31.4025C54.5228 30.9336 54.9849 30.4956 55.4195 30.0267C55.7823 29.6365 56.1553 29.2498 56.4531 28.8015C56.501 28.7296 56.5386 28.6543 56.5592 28.5687C56.5934 28.4147 56.5284 28.2984 56.3778 28.2539C56.282 28.2265 56.193 28.1923 56.2135 28.0759C56.234 27.9698 56.3333 27.9698 56.4189 27.9698C56.8227 27.9698 57.2265 27.9767 57.6304 28.0006C58.1882 28.0314 58.7461 27.9459 59.304 27.9698C59.3485 27.9732 59.3964 27.9698 59.4409 27.9698C59.5298 27.9732 59.6428 27.963 59.6496 28.0896C59.6565 28.2196 59.5504 28.247 59.4511 28.247C58.7187 28.2539 58.1403 28.6098 57.5962 29.0581C57.3189 29.2874 57.076 29.5544 56.8193 29.8042C56.2272 30.3826 55.6351 30.9576 55.0499 31.5394C54.8274 31.7584 54.6187 31.9946 54.3996 32.217C54.3346 32.2855 54.3346 32.3403 54.3962 32.4087C54.759 32.816 55.1183 33.2301 55.4845 33.6339C56.1656 34.3835 56.8535 35.1295 57.5585 35.8551C58.1027 36.4164 58.6469 36.9708 59.2971 37.4123C59.7283 37.7032 60.2006 37.8949 60.7243 37.9325C60.8167 37.9394 60.9057 37.9667 60.9022 38.0763C60.9022 38.1721 60.8167 38.2097 60.7311 38.2097C59.8721 38.1892 59.0096 38.2816 58.154 38.1481C57.6783 38.0728 57.3121 37.7922 56.9562 37.491C56.3641 36.9879 55.8781 36.3822 55.3682 35.8003C54.8343 35.1946 54.3072 34.582 53.7836 33.9693C53.5782 33.7263 53.3832 33.4731 53.1847 33.2232C53.1573 33.1753 53.1367 33.124 53.0512 33.1103Z" fill="black"/>
<path d="M44.7482 32.905C44.998 32.4567 45.2376 32.0391 45.4669 31.6113C45.8879 30.8276 46.3465 30.0678 46.7435 29.2738C46.8325 29.0958 46.8941 28.9042 46.9386 28.7091C46.9899 28.4695 46.8975 28.3121 46.6579 28.2436C46.6305 28.2368 46.6032 28.2299 46.5758 28.2231C46.5005 28.2026 46.4286 28.1718 46.4355 28.0794C46.4457 27.9767 46.5279 27.9664 46.6134 27.963C47.0823 27.939 47.5478 28.0109 48.0132 27.9938C48.4752 27.9767 48.9338 27.9596 49.3959 27.963C49.4472 27.963 49.4985 27.963 49.5499 27.9733C49.6046 27.9835 49.6423 28.0178 49.6526 28.0725C49.6628 28.1341 49.6252 28.1718 49.5773 28.1923C49.5328 28.2128 49.4814 28.2368 49.4301 28.2368C48.8346 28.2539 48.4239 28.5825 48.0885 29.0342C47.4896 29.8453 46.9831 30.7181 46.4731 31.5874C46.1754 32.0939 45.8913 32.6038 45.6038 33.1172C45.3711 33.5347 45.2889 33.9933 45.2855 34.4656C45.2821 35.0988 45.2787 35.7319 45.2889 36.3651C45.2924 36.6697 45.3197 36.9777 45.354 37.2823C45.4019 37.6861 45.597 37.8573 46.0077 37.8846C46.1993 37.8983 46.391 37.9325 46.586 37.9223C46.6682 37.9189 46.7572 37.9428 46.764 38.0421C46.7674 38.1379 46.6853 38.1755 46.6032 38.1927C46.5484 38.2029 46.4902 38.1995 46.432 38.1995C45.881 38.1995 45.3266 38.1995 44.7756 38.1687C44.0979 38.131 43.4203 38.2166 42.7427 38.1995C42.6845 38.1995 42.6263 38.2029 42.5715 38.1927C42.4894 38.179 42.4073 38.155 42.4107 38.0489C42.4175 37.9497 42.4928 37.9223 42.5784 37.9189C42.6845 37.912 42.794 37.9052 42.9001 37.8983C43.3245 37.8744 43.4579 37.5971 43.4887 37.2309C43.5709 36.2521 43.5264 35.2733 43.5195 34.2911C43.5161 33.8804 43.3621 33.4971 43.1533 33.1446C42.4209 31.8954 41.6714 30.6599 40.8877 29.4449C40.6721 29.1129 40.4188 28.8152 40.1245 28.5517C39.9226 28.3668 39.6796 28.2573 39.4024 28.2368C39.3784 28.2334 39.3544 28.2368 39.3339 28.2299C39.2552 28.206 39.1457 28.206 39.1559 28.0862C39.1628 27.9664 39.262 27.9562 39.3579 27.9527C39.926 27.9356 40.4975 27.987 41.0657 27.9801C41.5551 27.9733 42.0445 27.9425 42.5339 27.9527C42.5852 27.9527 42.6366 27.9562 42.6879 27.963C42.7392 27.9698 42.7666 28.0041 42.7735 28.0554C42.7803 28.1033 42.7735 28.1478 42.729 28.1786C42.705 28.1957 42.6776 28.2026 42.6502 28.2128C42.2635 28.3566 42.2361 28.4285 42.4141 28.8049C42.7016 29.4004 43.0473 29.9651 43.3724 30.5401C43.7933 31.2828 44.2246 32.022 44.649 32.7612C44.6798 32.8092 44.7071 32.8434 44.7482 32.905Z" fill="black"/>
<path d="M35.2204 32.57C35.2204 33.607 35.2204 34.6474 35.2204 35.6844C35.2204 36.1978 35.2512 36.7077 35.2922 37.2177C35.3299 37.6831 35.5284 37.8645 35.9938 37.8885C36.1752 37.8987 36.3566 37.9227 36.538 37.9261C36.6167 37.9261 36.7126 37.9501 36.7126 38.0528C36.7126 38.1554 36.6304 38.1999 36.5346 38.1999C36.0452 38.1931 35.5558 38.2136 35.0664 38.1828C34.5735 38.152 34.0773 38.1554 33.581 38.1896C33.2285 38.2136 32.876 38.1999 32.5201 38.1965C32.4311 38.1965 32.3421 38.1588 32.3455 38.0493C32.3489 37.9295 32.4448 37.9261 32.5303 37.9227C32.6433 37.9159 32.7562 37.9261 32.8692 37.9022C33.2285 37.8234 33.3278 37.7345 33.3859 37.3683C33.4236 37.1321 33.4544 36.896 33.4612 36.6564C33.5263 34.0862 33.4886 31.5159 33.4989 28.9422C33.4989 28.7985 33.4476 28.7574 33.3107 28.754C32.6946 28.7506 32.082 28.8053 31.466 28.7951C31.2401 28.7916 31.0142 28.8361 30.7883 28.8635C30.4153 28.908 30.186 29.1305 30.0491 29.4659C30.0149 29.5514 29.9806 29.6336 29.9498 29.7191C29.9224 29.7978 29.8643 29.8184 29.789 29.8115C29.7137 29.8047 29.6829 29.7499 29.6726 29.6849C29.6452 29.5172 29.6829 29.3563 29.7103 29.1921C29.7821 28.8019 29.8643 28.4118 29.943 28.0216C29.9977 27.7444 30.1312 27.7102 30.3263 27.8197C30.5522 27.9463 30.8123 27.9292 31.0587 27.9566C31.3393 27.9874 31.6268 27.9942 31.9109 27.9976C33.6632 28.0011 35.412 27.9976 37.1643 28.0011C37.6435 28.0011 38.1192 27.9737 38.588 27.8744C38.7489 27.8402 38.8447 27.8915 38.8379 28.0421C38.8139 28.6274 38.8345 29.2126 38.7831 29.7978C38.7763 29.8834 38.7523 29.9587 38.6428 29.9519C38.547 29.945 38.5093 29.8834 38.4956 29.7944C38.4135 29.1955 38.2355 29.0004 37.6298 28.8704C37.4005 28.8224 37.1712 28.7848 36.935 28.7951C36.4319 28.8122 35.9357 28.7437 35.4326 28.754C35.258 28.7574 35.2101 28.8122 35.2135 28.9833C35.2238 30.1743 35.2204 31.3722 35.2204 32.57Z" fill="black"/>
<path d="M14.4291 10.3161C13.6488 10.3229 12.9677 10.056 12.4133 9.52208C11.7596 8.88893 11.4824 8.09835 11.5884 7.18114C11.7356 5.93537 12.7144 4.94972 14.0013 4.76833C15.4798 4.55956 16.9377 5.45281 17.2389 7.01002C17.3997 7.84851 17.2047 8.61514 16.6571 9.27909C16.0787 9.97727 15.3223 10.2956 14.4291 10.3161Z" fill="black"/>
<path d="M45.8025 4.62109C47.3734 4.64505 48.6671 5.79156 48.6602 7.43091C48.6534 9.02234 47.3974 10.1928 45.7854 10.2031C44.2248 10.2133 42.8558 8.95047 42.9448 7.24952C43.0201 5.84974 44.194 4.63136 45.8025 4.62109Z" fill="black"/>
<path d="M23.2348 37.2538C23.2314 36.7405 23.2827 36.2305 23.3067 35.7206C23.3067 35.7138 23.3067 35.7103 23.3067 35.7035C23.3409 35.5905 23.3203 35.4194 23.4983 35.4297C23.6694 35.44 23.6421 35.6042 23.6489 35.7103C23.6729 36.0868 23.7516 36.4462 23.9398 36.7713C24.2204 37.2573 24.638 37.5516 25.1958 37.6543C25.7776 37.7638 26.3355 37.709 26.8249 37.3565C27.2596 37.0451 27.4718 36.6173 27.4512 36.0663C27.4238 35.3168 27.0131 34.7931 26.4861 34.3311C25.8221 33.7493 25.076 33.2701 24.4771 32.613C23.9158 31.997 23.536 31.2954 23.512 30.4466C23.4778 29.2762 24.1486 28.3795 25.2609 27.9893C25.8837 27.7703 26.5237 27.7258 27.1808 27.7771C27.5847 27.8079 27.9817 27.873 28.3753 27.9619C28.6388 28.0201 28.6593 28.0441 28.6491 28.3042C28.632 28.8347 28.608 29.3617 28.6148 29.8922C28.6148 29.9641 28.5943 30.0394 28.5738 30.1112C28.5567 30.1763 28.5122 30.2208 28.4369 30.2208C28.3547 30.2173 28.3137 30.166 28.3034 30.0907C28.2829 29.9675 28.276 29.8409 28.2452 29.7211C28.0604 28.9989 27.4957 28.5301 26.7462 28.4479C26.2944 28.3966 25.8701 28.4479 25.4867 28.6978C24.9528 29.0434 24.7509 29.6937 24.9836 30.2892C25.1308 30.6657 25.3978 30.9532 25.6955 31.2133C26.4176 31.8464 27.2425 32.3563 27.9098 33.0614C28.6114 33.804 28.9879 34.6631 28.9194 35.6898C28.8339 36.9321 28.0091 37.8425 26.8934 38.2019C26.3937 38.3627 25.8803 38.4209 25.3601 38.4072C24.7817 38.3901 24.1999 38.3422 23.6557 38.1129C23.2656 37.952 23.2348 37.9144 23.2348 37.4968C23.2348 37.4147 23.2348 37.336 23.2348 37.2538Z" fill="black"/>
<path d="M7.60128 15.3307C7.57732 16.597 6.60193 17.5621 5.29456 17.5587C3.99061 17.5553 3.00153 16.5765 3.0118 15.2931C3.02207 14.0576 4.00088 13.0685 5.33221 13.0822C6.6122 13.0959 7.58759 14.0507 7.60128 15.3307Z" fill="black"/>
<path d="M57.3292 15.3272C57.3498 16.5284 56.3607 17.562 55.0499 17.5586C53.763 17.5552 52.75 16.6106 52.75 15.3203C52.75 14.0198 53.763 13.0855 55.0464 13.082C56.3641 13.0786 57.3532 14.1053 57.3292 15.3272Z" fill="black"/>
<path d="M21.1642 11.2989C20.9965 10.9327 20.8904 10.5494 20.8014 10.1627C20.6611 9.56719 20.579 8.96142 20.6611 8.3488C20.7672 7.55138 21.1779 7.00379 21.9582 6.75053C22.4716 6.58625 22.9884 6.4562 23.536 6.52807C24.1109 6.60336 24.5422 6.90796 24.8707 7.36656C25.2609 7.91415 25.4423 8.55415 25.5963 9.20099C25.6339 9.36526 25.6647 9.52954 25.6681 9.70751C25.5449 9.53296 25.432 9.34815 25.2951 9.18387C24.9084 8.71842 24.4018 8.47543 23.7995 8.42067C22.3347 8.29404 21.3935 9.5227 21.219 10.6761C21.1848 10.8814 21.1848 11.0902 21.1642 11.2989Z" fill="black"/>
<path d="M34.7343 9.78503C34.6966 9.74054 34.7103 9.69947 34.7206 9.66182C34.9157 8.88493 35.1552 8.12173 35.6412 7.46804C35.9869 7.00259 36.4113 6.61586 37.017 6.56795C37.7837 6.50976 38.5229 6.63297 39.1424 7.13949C39.4299 7.37564 39.5839 7.70419 39.6626 8.06013C39.8166 8.73435 39.6865 9.38461 39.5154 10.0349C39.3991 10.4832 39.2314 10.9144 39.0534 11.3388C39.0397 11.3696 39.0363 11.4073 38.9815 11.4244C38.9952 11.2533 39.0157 11.089 39.0226 10.9247C39.0637 10.2026 38.8823 9.55573 38.3689 9.02867C37.7666 8.40921 36.8699 8.28943 36.028 8.67616C35.5386 8.90204 35.2066 9.30247 34.8472 9.67209C34.8198 9.69947 34.7959 9.73369 34.7685 9.7645C34.7651 9.77134 34.7548 9.77477 34.7343 9.78503Z" fill="black"/>
<path d="M44.4061 44.7056C43.8859 44.7056 43.3691 44.7056 42.8489 44.7056C42.7667 44.7056 42.6675 44.7228 42.623 44.6269C42.5853 44.5414 42.6538 44.4763 42.6949 44.4113C43.5231 43.1245 44.3479 41.8342 45.1795 40.5474C45.2685 40.4105 45.2343 40.3865 45.0906 40.3899C44.608 40.4071 44.122 40.366 43.6394 40.4208C43.2322 40.4652 43.0405 40.6021 42.9173 40.9991C42.9002 41.0539 42.8831 41.1018 42.8181 41.0915C42.753 41.0813 42.7393 41.0265 42.7462 40.9752C42.7907 40.6706 42.8386 40.3694 42.8865 40.0648C42.9002 39.9861 42.9618 39.969 43.0303 39.9793C44.0365 40.0922 45.0461 40.0203 46.0523 40.0443C46.1447 40.0477 46.2679 39.9929 46.3192 40.0956C46.3706 40.1983 46.2713 40.2839 46.22 40.3694C45.4294 41.6528 44.5909 42.9089 43.7695 44.1717C43.7455 44.2094 43.6942 44.2402 43.7216 44.2915C43.7455 44.3394 43.8037 44.3223 43.8448 44.3189C44.3855 44.3052 44.9263 44.3497 45.467 44.2881C45.8195 44.247 46.0899 44.117 46.1823 43.7439C46.1892 43.7097 46.2029 43.6789 46.2165 43.6481C46.2302 43.6173 46.2473 43.5831 46.2884 43.5865C46.3295 43.5899 46.3398 43.6276 46.35 43.6584C46.4116 43.8124 46.3569 43.9664 46.3261 44.1136C46.1857 44.8391 46.2781 44.692 45.6347 44.7056C45.2275 44.7125 44.8168 44.7056 44.4061 44.7056Z" fill="black"/>
<path d="M28.2625 44.7026C28.04 44.7026 27.8175 44.7026 27.5951 44.7026C27.5437 44.7026 27.4787 44.706 27.4719 44.641C27.465 44.5588 27.5403 44.5622 27.5951 44.5622C27.9031 44.552 28.0879 44.374 28.194 44.1071C28.7245 42.786 29.2481 41.4649 29.782 40.1439C29.8231 40.0446 29.8334 39.8906 29.9737 39.8906C30.1174 39.8906 30.1414 40.0446 30.1824 40.1507C30.6924 41.4102 31.1989 42.6731 31.7123 43.9359C31.767 44.0728 31.8457 44.1995 31.9279 44.3227C32.0408 44.4938 32.2154 44.552 32.4139 44.5622C32.4618 44.5657 32.5302 44.552 32.5302 44.6273C32.5302 44.6957 32.4686 44.7026 32.4173 44.7026C31.9621 44.7026 31.5069 44.7026 31.0483 44.7026C31.0004 44.7026 30.9525 44.6855 30.9285 44.6444C30.8943 44.5862 30.9559 44.5691 30.9901 44.5417C31.0415 44.5041 31.0312 44.4527 31.0107 44.4014C30.8601 44.001 30.7095 43.6005 30.5623 43.2035C30.5315 43.1248 30.4733 43.094 30.3878 43.094C30.0011 43.0974 29.6109 43.094 29.2242 43.094C29.1489 43.094 29.0941 43.118 29.0667 43.1967C28.9469 43.5287 28.8169 43.8572 28.7039 44.1926C28.615 44.4596 28.6868 44.5657 28.9606 44.5622C29.0085 44.5622 29.077 44.5588 29.077 44.6307C29.077 44.7163 29.0017 44.7026 28.9469 44.7026C28.7211 44.7026 28.4918 44.7026 28.2625 44.7026ZM29.8231 41.1946C29.6349 41.7045 29.4603 42.1734 29.2858 42.6423C29.2481 42.7449 29.3063 42.7484 29.3747 42.7484C29.6588 42.7484 29.9463 42.7449 30.2304 42.7484C30.3638 42.7518 30.3672 42.6936 30.3296 42.5909C30.1619 42.1392 30.0011 41.6908 29.8231 41.1946Z" fill="black"/>
<path d="M1.61194 42.2691C1.61194 42.8167 1.61536 43.3642 1.60852 43.9118C1.60852 44.0453 1.62905 44.1719 1.65301 44.302C1.68724 44.5142 1.8652 44.5244 2.02948 44.5552C2.11162 44.5689 2.2622 44.5142 2.25878 44.6237C2.25536 44.7538 2.10477 44.6956 2.01921 44.699C1.51611 44.7058 1.01644 44.7024 0.513341 44.7024C0.462005 44.7024 0.410668 44.699 0.359332 44.6956C0.325107 44.6921 0.294305 44.6716 0.294305 44.6305C0.294305 44.5895 0.325107 44.5724 0.362753 44.5655C0.485961 44.5484 0.622859 44.5621 0.701575 44.4389C0.787136 44.2986 0.776869 44.1343 0.787136 43.9734C0.845317 43.1076 0.804248 42.2417 0.82136 41.3758C0.828205 41.0678 0.804249 40.7632 0.783714 40.4552C0.773447 40.2943 0.687886 40.2053 0.527032 40.1848C0.455161 40.1745 0.379866 40.1608 0.307995 40.1506C0.266926 40.1437 0.205322 40.154 0.205322 40.089C0.205322 40.0342 0.25666 40.0171 0.304574 40.0103C0.35591 40.0068 0.407247 40 0.458583 40.0068C1.02671 40.0513 1.59483 40.0103 2.16295 40.0068C2.40937 40.0068 2.64894 40.0479 2.88509 40.1266C3.34027 40.2841 3.6346 40.729 3.59695 41.2115C3.54219 41.9405 3.10755 42.4402 2.39568 42.5942C2.24851 42.625 2.10135 42.6079 1.95418 42.6079C1.91312 42.6079 1.86862 42.5976 1.8652 42.5463C1.85836 42.4847 1.90627 42.471 1.95418 42.4676C2.48808 42.4025 2.75161 42.0637 2.82691 41.564C2.90904 40.9993 2.54627 40.3046 1.83782 40.3149C1.68039 40.3183 1.61537 40.373 1.61537 40.5373C1.61537 41.1191 1.61194 41.6941 1.61194 42.2691Z" fill="black"/>
<path d="M47.1611 13.7427C47.3596 13.5682 47.5513 13.3834 47.7601 13.2225C48.1673 12.9111 48.5986 12.6407 49.1393 12.6613C49.7177 12.6852 50.1352 12.9898 50.4261 13.4724C50.5562 13.6846 50.5528 13.9344 50.4946 14.174C50.3235 14.8756 49.8785 15.406 49.3926 15.9091C49.4336 15.7038 49.5021 15.5087 49.5295 15.3034C49.6527 14.3656 48.934 13.4929 47.7737 13.6435C47.5718 13.6674 47.3767 13.7188 47.1611 13.7427Z" fill="black"/>
<path d="M10.9791 15.9415C10.476 15.4315 10.0072 14.8874 9.83947 14.1618C9.67178 13.426 10.2775 12.9297 10.8217 12.81C11.3043 12.7039 11.715 12.9092 12.112 13.1419C12.3344 13.272 12.5398 13.4328 12.7246 13.6382C12.088 13.58 11.5062 13.6656 11.1024 14.2132C10.6985 14.7539 10.7498 15.3357 10.9791 15.9415Z" fill="black"/>
</svg>
